<?xml version="1.0" standalone="no"?><!DOCTYPE svg PUBLIC "-//W3C//DTD SVG 1.1//EN" "http://www.w3.org/Graphics/SVG/1.1/DTD/svg11.dtd"><svg t="1597677713203" class="icon" viewBox="0 0 1024 1024" version="1.1" xmlns="http://www.w3.org/2000/svg" p-id="2933" xmlns:xlink="http://www.w3.org/1999/xlink" width="200" height="200"><defs><style type="text/css"></style></defs><path d="M939.741991 369.504612c-11.256368 0-20.363793 9.107425-20.363793 20.363793l0 448.105784c0 45.025473-36.532031 81.455173-81.455173 81.455173l-651.846048 0c-45.025473 0-81.455173-36.429701-81.455173-81.455173l0-651.846048c0-45.025473 36.429701-81.455173 81.455173-81.455173l448.105784 0c11.256368 0 20.363793-9.107425 20.363793-20.363793s-9.107425-20.363793-20.363793-20.363793l-448.105784 0c-67.538209 0-122.18276 54.746882-122.18276 122.18276l0 651.743718c0 67.538209 54.746882 122.18276 122.18276 122.18276l651.743718 0c67.538209 0 122.18276-54.746882 122.18276-122.18276l0-448.003454C960.105784 378.612037 950.998359 369.504612 939.741991 369.504612M287.895943 736.052892l173.859723-29.77821 468.469578-468.469578c18.419512-18.419512 29.880541-43.899836 29.880541-72.040756 0-56.281841-45.639456-101.818967-101.818967-101.818967-28.14092 0-53.621245 11.358699-72.040756 29.880541l-468.469578 468.469578L287.895943 736.052892zM815.000965 122.580826c11.051707-11.051707 26.298969-17.907858 43.183522-17.907858 33.769105 0 61.09138 27.424606 61.09138 61.09138 0 16.884552-6.856152 32.131815-17.907858 43.183522l-26.298969 26.298969-86.367043-86.367043L815.000965 122.580826zM759.844761 177.73703l86.367043 86.367043-374.939391 375.041722 0-45.639456 0-40.727587-40.727587 0-45.639456 0L759.844761 177.73703zM354.615507 593.506339l75.92932 0 0 75.92932-91.688235 15.656585L354.615507 593.506339z" p-id="2934"></path></svg>